<?xml version="1.0" standalone="no"?>
<!DOCTYPE svg PUBLIC "-//W3C//DTD SVG 20010904//EN"
 "http://www.w3.org/TR/2001/REC-SVG-20010904/DTD/svg10.dtd">
<svg version="1.0" xmlns="http://www.w3.org/2000/svg"
 width="300.000000pt" height="151.000000pt" viewBox="0 0 300.000000 151.000000"
 preserveAspectRatio="xMidYMid meet">
<metadata>
Created by potrace 1.10, written by Peter Selinger 2001-2011
</metadata>
<g transform="translate(0.000000,151.000000) scale(0.100000,-0.100000)"
fill="#000000" stroke="none">
<path d="M973 1409 c-40 -12 -88 -60 -102 -101 l-11 -33 -321 0 c-270 -1 -322
-3 -329 -15 -11 -16 -14 -831 -4 -891 l6 -36 248 -7 c136 -3 356 -3 489 0
l241 7 0 479 c0 457 -1 481 -20 517 -34 67 -122 103 -197 80z m112 -92 c39
-33 39 -91 1 -123 -59 -51 -146 -15 -146 61 0 75 87 112 145 62z m-176 -102
c38 -85 130 -111 194 -55 19 17 37 30 41 30 3 0 6 -47 6 -105 0 -85 -3 -105
-14 -105 -8 0 -18 5 -21 10 -3 6 -44 10 -89 10 -134 0 -128 13 -126 -273 0
-157 -3 -237 -10 -237 -9 0 -110 132 -210 272 l-33 47 41 53 c23 29 79 100
126 158 47 58 86 113 86 122 0 36 -39 48 -151 48 -118 0 -115 2 -161 -80 -15
-25 -38 -56 -53 -70 l-27 -25 3 67 c5 98 -7 108 -128 108 -52 0 -103 -5 -114
-10 -17 -10 -19 -7 -19 20 l0 30 293 0 c230 0 297 3 317 14 14 8 26 14 27 15
1 1 11 -19 22 -44z m-428 -83 c-13 -25 -26 -260 -13 -247 38 39 172 229 172
245 0 19 7 20 122 20 l122 0 -34 -32 c-25 -26 -176 -208 -243 -295 -6 -9 20
-54 89 -150 55 -76 118 -162 142 -190 l42 -53 -119 0 -118 0 -6 28 c-5 26
-161 252 -174 252 -9 0 7 -242 18 -262 9 -17 2 -18 -102 -18 -102 0 -110 1
-103 18 12 22 12 662 0 685 -7 16 1 17 103 17 104 0 111 -1 102 -18z m631
-419 c2 -137 7 -256 12 -265 7 -17 0 -18 -98 -18 -102 0 -106 1 -96 19 15 29
14 483 -2 499 -9 9 9 12 85 12 l96 0 3 -247z m-526 -241 c40 -80 45 -82 168
-82 80 1 116 5 130 15 16 12 22 12 42 -2 19 -12 45 -14 124 -11 66 2 99 0 97
-7 -3 -7 -150 -10 -448 -10 -422 0 -444 1 -447 18 -3 16 -1 17 16 8 12 -6 63
-11 115 -11 122 0 133 9 129 113 l-2 72 29 -33 c16 -18 37 -50 47 -70z"/>
<path d="M2636 1184 c11 -24 18 -254 7 -254 -4 0 -16 7 -27 15 -28 21 -96 28
-144 16 -95 -26 -146 -124 -147 -281 0 -87 3 -100 30 -149 42 -75 91 -106 169
-106 46 0 70 6 99 23 37 23 37 23 37 3 0 -20 5 -21 90 -21 87 0 90 1 80 19 -6
13 -10 151 -10 380 l0 361 -79 0 c-44 0 -87 3 -97 7 -14 5 -16 3 -8 -13z m139
-374 l0 -335 -33 -3 c-18 -2 -46 4 -63 12 -28 14 -35 14 -67 0 -21 -9 -60 -17
-88 -17 -70 -2 -115 32 -143 108 -24 62 -26 119 -10 197 27 129 96 173 219
141 55 -14 55 -14 78 12 19 23 22 37 22 119 0 51 3 96 7 100 4 4 23 6 43 4
l35 -3 0 -335z"/>
<path d="M2510 851 c-44 -42 -61 -103 -53 -191 6 -68 25 -105 66 -130 38 -24
68 -25 107 -5 53 27 60 48 60 176 0 131 -11 159 -73 177 -50 16 -67 11 -107
-27z m109 -12 l31 -11 0 -127 c0 -127 0 -128 -25 -139 -95 -44 -151 35 -127
178 8 49 17 70 37 88 30 25 39 26 84 11z"/>
<path d="M1495 1151 c-87 -23 -179 -102 -216 -185 -65 -147 -33 -352 71 -456
64 -64 118 -85 220 -85 72 1 95 5 148 29 34 16 62 32 62 37 0 6 -51 95 -68
119 -1 2 -11 -1 -20 -8 -43 -31 -102 -52 -129 -46 -52 12 -91 44 -115 92 -19
39 -23 63 -23 142 0 81 4 102 25 144 33 66 67 89 129 90 36 1 57 -5 80 -21 16
-13 32 -23 34 -23 11 0 78 113 70 120 -4 3 -33 17 -63 30 -58 24 -155 34 -205
21z m174 -52 c20 -7 31 -18 31 -29 0 -28 -12 -31 -68 -13 -62 20 -114 8 -166
-37 -55 -49 -80 -119 -80 -230 -1 -86 2 -101 29 -155 53 -107 153 -148 244
-101 33 18 35 18 48 0 19 -27 17 -32 -24 -50 -60 -25 -178 -23 -236 5 -169 82
-218 355 -94 523 66 89 202 126 316 87z"/>
<path d="M1930 953 c-41 -8 -77 -17 -79 -19 -2 -2 6 -28 19 -58 l22 -54 31 13
c64 26 111 28 139 6 14 -11 28 -32 30 -46 5 -25 4 -25 -62 -25 -91 0 -158 -22
-200 -65 -29 -30 -34 -43 -38 -94 -6 -82 22 -132 95 -168 62 -30 122 -27 180
7 33 19 33 19 33 0 0 -18 7 -20 91 -20 72 0 89 3 82 13 -6 6 -13 98 -16 204
-4 178 -7 195 -28 234 -14 25 -39 50 -60 61 -51 26 -149 31 -239 11z m222 -49
c52 -27 62 -69 62 -259 l1 -170 -32 -3 c-18 -2 -48 4 -67 13 -32 15 -37 15
-67 0 -71 -37 -173 -14 -204 45 -54 105 28 199 173 200 54 0 67 4 88 26 32 31
27 65 -17 109 -26 27 -35 30 -82 28 -28 -1 -60 -4 -69 -5 -9 -2 -17 2 -18 7
-2 16 99 35 154 29 27 -3 62 -12 78 -20z"/>
<path d="M1995 695 c-52 -19 -85 -57 -85 -100 0 -25 8 -40 37 -65 32 -29 41
-32 82 -27 62 7 101 49 101 110 0 74 -59 110 -135 82z m95 -74 c0 -56 -22 -81
-73 -81 -46 0 -67 17 -67 54 0 38 16 55 63 66 72 17 77 15 77 -39z"/>
<path d="M1234 247 c-9 -24 0 -142 11 -140 6 1 12 23 15 47 l5 45 58 -51 c32
-28 60 -48 63 -45 7 6 9 44 6 105 -3 56 -25 52 -32 -6 l-5 -41 -57 50 c-43 37
-59 47 -64 36z"/>
<path d="M1484 251 c-2 -2 -4 -38 -4 -78 l0 -74 67 3 c87 4 99 26 16 30 -44 2
-58 7 -58 18 0 10 12 16 35 18 53 5 62 22 12 22 -36 0 -42 3 -42 20 0 12 6 20
13 19 34 -4 97 2 97 10 0 9 -128 20 -136 12z"/>
<path d="M2276 211 c-15 -28 -28 -51 -31 -51 -2 0 -11 14 -20 30 -9 17 -19 30
-24 30 -5 0 -14 -13 -21 -30 -7 -16 -15 -30 -19 -30 -4 0 -17 20 -29 45 -20
41 -42 60 -42 35 0 -19 59 -140 68 -140 4 0 16 17 26 37 l18 38 19 -38 c11
-20 23 -37 28 -37 15 0 73 142 62 153 -6 6 -18 -8 -35 -42z"/>
<path d="M2387 254 c-4 -4 -7 -41 -7 -81 0 -55 3 -74 13 -71 7 3 13 29 15 73
3 64 -5 94 -21 79z"/>
<path d="M2464 251 c-11 -12 -1 -20 28 -23 32 -3 33 -4 30 -45 -2 -24 -1 -52
3 -63 12 -38 24 -20 27 43 3 62 3 62 36 65 59 6 33 20 -44 24 -42 2 -78 1 -80
-1z"/>
<path d="M204 236 c-3 -7 -4 -40 -2 -72 l3 -59 57 1 c61 1 85 14 99 52 10 27
-10 76 -36 86 -32 12 -115 7 -121 -8z m119 -35 c33 -32 -5 -71 -69 -71 -22 0
-24 4 -24 50 l0 51 38 -7 c20 -3 45 -14 55 -23z"/>
<path d="M442 178 l3 -73 68 -3 c55 -2 67 0 67 13 0 12 -12 15 -55 15 -48 0
-55 2 -55 20 0 17 7 20 40 20 22 0 40 5 40 10 0 6 -18 10 -41 10 -33 0 -40 3
-37 18 3 18 8 19 71 21 68 2 39 21 -33 21 l-71 0 3 -72z"/>
<path d="M655 230 c-17 -19 -17 -21 -1 -39 10 -11 38 -22 67 -26 68 -10 59
-30 -14 -30 -65 -1 -76 -15 -23 -29 44 -12 105 2 120 26 16 25 -11 48 -70 59
-80 15 -75 29 12 32 80 3 75 21 -7 25 -55 2 -68 0 -84 -18z"/>
<path d="M882 178 c2 -40 8 -73 13 -73 6 0 11 33 13 73 2 60 0 72 -13 72 -13
0 -15 -12 -13 -72z"/>
<path d="M1022 240 c-58 -24 -50 -99 14 -126 40 -17 109 -11 117 9 5 16 -6 58
-15 58 -5 -1 -19 -1 -33 -1 -31 0 -33 -17 -2 -22 37 -5 19 -23 -23 -22 -100 2
-94 75 7 84 32 3 58 10 58 15 0 13 -94 17 -123 5z"/>
<path d="M1692 178 l3 -73 37 -3 c80 -7 142 47 117 102 -15 32 -49 46 -110 46
l-50 0 3 -72z m121 23 c33 -32 -5 -71 -69 -71 -22 0 -24 4 -24 49 l0 50 38 -6
c20 -3 45 -13 55 -22z"/>
<path d="M2673 178 c1 -47 6 -73 15 -76 8 -2 12 8 12 32 l0 36 55 0 55 0 0
-36 c0 -24 4 -34 13 -32 8 3 13 30 15 76 2 60 0 72 -13 72 -10 0 -15 -10 -15
-29 0 -29 -1 -29 -52 -27 -49 3 -53 5 -56 29 -2 15 -10 27 -17 27 -11 0 -14
-16 -12 -72z"/>
</g>
</svg>
